HIERARCHY
ROOT PELVIS
{
    OFFSET [0, 0, 0]
    CHANNELS 6 Xposition Yposition Zposition Zrotation Xrotation Yrotation
    JOINT SPINE_NAVAL
    {
        OFFSET [-1.8624025987445023, -15.56283938170459, -4.882280244614236]
        CHANNELS 3 Zrotation Xrotation Yrotation
        JOINT SPINE_CHEST
        {
            OFFSET [0.13680768405058075, -13.014416240772798, -1.6879051462313157]
            CHANNELS 3 Zrotation Xrotation Yrotation
            JOINT NECK
            {
                OFFSET [1.5412654107579442, -19.902495759177704, -0.7494670419712861]
                CHANNELS 3 Zrotation Xrotation Yrotation
                JOINT HEAD
                {
                    OFFSET [-0.9581886209233943, -6.9503943579717244, -2.695512454014704]
                    CHANNELS 3 Zrotation Xrotation Yrotation
                    JOINT NOSE
                    {
                        OFFSET [-9.96830460294748, -6.902509924923862, -8.449794120633896]
                        CHANNELS 3 Zrotation Xrotation Yrotation
                    }
                    JOINT EYE_LEFT
                    {
                        OFFSET [-5.316042395647017, -8.986952621268394, -9.177428141077343]
                        CHANNELS 3 Zrotation Xrotation Yrotation
                    }
                    JOINT EAR_LEFT
                    {
                        OFFSET [5.770296214356428, -6.1362447081869504, -6.937967956615694]
                        CHANNELS 3 Zrotation Xrotation Yrotation
                    }
                    JOINT EYE_RIGHT
                    {
                        OFFSET [-9.54998331349243, -9.345276696575503, -4.389364153135745]
                        CHANNELS 3 Zrotation Xrotation Yrotation
                    }
                    JOINT EAR_RIGHT
                    {
                        OFFSET [-5.259703654494725, -6.996290783642564, 6.620078980693592]
                        CHANNELS 3 Zrotation Xrotation Yrotation
                    }
                }
            }
            JOINT CLAVICLE_LEFT
            {
                OFFSET [3.5795548333343348, -16.59061457957459, -0.7425384691241561]
                CHANNELS 3 Zrotation Xrotation Yrotation
                JOINT SHOULDER_LEFT
                {
                    OFFSET [10.045270149421754, 4.024831292348537, -7.476274040460794]
                    CHANNELS 3 Zrotation Xrotation Yrotation
                    JOINT ELBOW_LEFT
                    {
                        OFFSET [3.1381710711461466, 25.22704991034994, -0.5987157351417807]
                        CHANNELS 3 Zrotation Xrotation Yrotation
                        JOINT WRIST_LEFT
                        {
                            OFFSET [0.3255735099614512, 21.281109261330187, -1.5835984846100928]
                            CHANNELS 3 Zrotation Xrotation Yrotation
                            JOINT HAND_LEFT
                            {
                                OFFSET [1.4518834133139364, 7.702443371306643, 4.1173736161983925]
                                CHANNELS 3 Zrotation Xrotation Yrotation
                                JOINT HANDTIP_LEFT
                                {
                                    OFFSET [0.017971372253136053, 6.912692266709168, 7.143854528202866]
                                    CHANNELS 3 Zrotation Xrotation Yrotation
                                }
                            }
                            JOINT THUMB_LEFT
                            {
                                OFFSET [-4.346395839445307, 10.978401182472584, 6.224499488069057]
                                CHANNELS 3 Zrotation Xrotation Yrotation
                            }
                        }
                    }
                }
            }
            JOINT CLAVICLE_RIGHT
            {
                OFFSET [-0.4926540483477524, -16.85043511433544, 1.5935064747236538]
                CHANNELS 3 Zrotation Xrotation Yrotation
                JOINT SHOULDER_RIGHT
                {
                    OFFSET [-10.758463879117107, 3.956191532192854, 3.871878083651552]
                    CHANNELS 3 Zrotation Xrotation Yrotation
                    JOINT ELBOW_RIGHT
                    {
                        OFFSET [-4.266464828225361, 23.940013652406726, 8.936463465710176]
                        CHANNELS 3 Zrotation Xrotation Yrotation
                        JOINT WRIST_RIGHT
                        {
                            OFFSET [-3.4536289555492274, 21.009633453297738, -3.6660515313393205]
                            CHANNELS 3 Zrotation Xrotation Yrotation
                            JOINT HAND_RIGHT
                            {
                                OFFSET [-1.1504109675311618, 9.249288303125986, 1.8647264412603022]
                                CHANNELS 3 Zrotation Xrotation Yrotation
                                JOINT HANDTIP_RIGHT
                                {
                                    OFFSET [4.714307901621499, 8.46144042969385, -1.0461361197294252]
                                    CHANNELS 3 Zrotation Xrotation Yrotation
                                }
                            }
                            JOINT THUMB_RIGHT
                            {
                                OFFSET [2.346547662167204, 13.038066016571916, -2.8486242408388023]
                                CHANNELS 3 Zrotation Xrotation Yrotation
                            }
                        }
                    }
                }
            }
        }
    }
    JOINT HIP_LEFT
    {
        OFFSET [7.4362688643811765, 0.3249160040754777, -3.8723608848215463]
        CHANNELS 3 Zrotation Xrotation Yrotation
        JOINT KNEE_LEFT
        {
            OFFSET [1.5799228958690321, 36.78319776825116, 1.0740035771356418]
            CHANNELS 3 Zrotation Xrotation Yrotation
            JOINT ANKLE_LEFT
            {
                OFFSET [3.9752671774926043, 32.13889576222717, 13.81074251023739]
                CHANNELS 3 Zrotation Xrotation Yrotation
                JOINT FOOT_LEFT
                {
                    OFFSET [-0.4169188238063768, 10.836579083623093, -13.392496041591784]
                    CHANNELS 3 Zrotation Xrotation Yrotation
                }
            }
        }
    }
    JOINT HIP_RIGHT
    {
        OFFSET [-6.705617075914613, -0.2926789997405024, 3.491918979438111]
        CHANNELS 3 Zrotation Xrotation Yrotation
        JOINT KNEE_RIGHT
        {
            OFFSET [1.714833018001407, 35.65442600529347, 8.940286211479446]
            CHANNELS 3 Zrotation Xrotation Yrotation
            JOINT ANKLE_RIGHT
            {
                OFFSET [5.465327700951001, 33.38193098012509, 11.018601660980693]
                CHANNELS 3 Zrotation Xrotation Yrotation
                JOINT FOOT_RIGHT
                {
                    OFFSET [-9.976023026776371, 9.915977548521752, -7.327260577837592]
                    CHANNELS 3 Zrotation Xrotation Yrotation
                }
            }
        }
    }
}
MOTION
Frames: 15
Frame Time: 0.01
26.8236115 -15.7712402 242.7859375 0 0 0 0 0 0 0 0 0 0 0 0 0 0 0 0 0 0 0 0 0 0 0 0 0 0 0 0 0 0 0 0 0 0 0 0 0 0 0 0 0 0 0 0 0 0 0 0 0 0 0 0 0 0 0 0 0 0 0 0 0 0 0 0 0 0 0 0 0 0 0 0 0 0 0 0 0 0 0 0 0 0 0 0 0 0 0 0 0 0 0 0 0 0 0 0 
26.823549244649577 -15.771196271808867 242.7859887620544 0 0 0 0 0 0 0 0 0 0 0 0 0 0 0 0 0 0 0 0 0 0 0 0 0 0 0 0 0 0 0 0 0 0 0 0 0 0 0 0 0 0 0 0 0 0 0 0 0 0 0 0 0 0 0 0 0 0 0 0 0 0 0 0 0 0 0 0 0 0 0 0 0 0 0 0 0 0 0 0 0 0 0 0 0 0 0 0 0 0 0 0 0 0 0 0 
26.82348698929916 -15.77115234361774 242.78604002410876 0 0 0 0 0 0 0 0 0 0 0 0 0 0 0 0 0 0 0 0 0 0 0 0 0 0 0 0 0 0 0 0 0 0 0 0 0 0 0 0 0 0 0 0 0 0 0 0 0 0 0 0 0 0 0 0 0 0 0 0 0 0 0 0 0 0 0 0 0 0 0 0 0 0 0 0 0 0 0 0 0 0 0 0 0 0 0 0 0 0 0 0 0 0 0 0 
26.823424733948734 -15.771108415426607 242.78609128616313 0 0 0 0 0 0 0 0 0 0 0 0 0 0 0 0 0 0 0 0 0 0 0 0 0 0 0 0 0 0 0 0 0 0 0 0 0 0 0 0 0 0 0 0 0 0 0 0 0 0 0 0 0 0 0 0 0 0 0 0 0 0 0 0 0 0 0 0 0 0 0 0 0 0 0 0 0 0 0 0 0 0 0 0 0 0 0 0 0 0 0 0 0 0 0 0 
26.82336247859832 -15.771064487235478 242.7861425482175 0 0 0 0 0 0 0 0 0 0 0 0 0 0 0 0 0 0 0 0 0 0 0 0 0 0 0 0 0 0 0 0 0 0 0 0 0 0 0 0 0 0 0 0 0 0 0 0 0 0 0 0 0 0 0 0 0 0 0 0 0 0 0 0 0 0 0 0 0 0 0 0 0 0 0 0 0 0 0 0 0 0 0 0 0 0 0 0 0 0 0 0 0 0 0 0 
26.823300223247895 -15.771020559044349 242.78619381027187 0 0 0 0 0 0 0 0 0 0 0 0 0 0 0 0 0 0 0 0 0 0 0 0 0 0 0 0 0 0 0 0 0 0 0 0 0 0 0 0 0 0 0 0 0 0 0 0 0 0 0 0 0 0 0 0 0 0 0 0 0 0 0 0 0 0 0 0 0 0 0 0 0 0 0 0 0 0 0 0 0 0 0 0 0 0 0 0 0 0 0 0 0 0 0 0 
26.823237967897477 -15.770976630853218 242.7862450723263 0 0 0 0 0 0 0 0 0 0 0 0 0 0 0 0 0 0 0 0 0 0 0 0 0 0 0 0 0 0 0 0 0 0 0 0 0 0 0 0 0 0 0 0 0 0 0 0 0 0 0 0 0 0 0 0 0 0 0 0 0 0 0 0 0 0 0 0 0 0 0 0 0 0 0 0 0 0 0 0 0 0 0 0 0 0 0 0 0 0 0 0 0 0 0 0 
26.8231964 -15.7709473 242.7862793 0 0 0 0 0 0 0 0 0 0 0 0 0 0 0 0 0 0 0 0 0 0 0 0 0 0 0 0 0 0 0 0 0 0 0 0 0 0 0 0 0 0 0 0 0 0 0 0 0 0 0 0 0 0 0 0 0 0 0 0 0 0 0 0 0 0 0 0 0 0 0 0 0 0 0 0 0 0 0 0 0 0 0 0 0 0 0 0 0 0 0 0 0 0 0 0 
26.80592221613058 -15.774067904296686 242.7573000483197 0 0 0 0 0 0 0 0 0 0 0 0 0 0 0 0 0 0 0 0 0 0 0 0 -0.07610291930094625 -0.17911085345825625 0.18937953372853722 0 0 0 0 0 0 0 0 0 0 0 0 0 0 0 0.15097158167675503 -0.15541593610985127 0.5003927246634537 -0.268987628245082 0.13106776944791781 -0.5820740122208792 0 0 0 0 0 0 0 0 0 0 0 0 0 0 0 0 0 0 0 0 0 0 0 0 0 0 0 0 0 0 0 0 0 0 0 0 0 0 0 0 0 0 0 0 0 0 0 0 
26.788648032261158 -15.777188508593374 242.7283207966394 0 0 0 0 0 0 0 0 0 0 0 0 0.025007560347669662 0.2570530365255894 0.1409558150171557 0 0 0 0 0 0 0.2912255106996796 -0.10427077301409088 0.08221525328793546 -0.1453886303691899 -0.3571597339725362 0.37814738354257893 0 0 0 0 0 0 0 0 0 0 0 0 0 0 0 0.2801886139322279 -0.3047428324159585 0.9756966799464396 -0.5427718301901793 0.26602005409633345 -1.1589792791780427 0 0 0 0 0 0 0.3713759589720444 -0.014284592949732932 -0.0943727580553347 0 0 0 -0.1583786542249486 0.13200344054651528 0.16028371834222355 0 0 0 0 0 0 0 0 0 0 0 0 0 0 0 0 0 0 0 0 0 0 0 0 0 0 0 0 0 0 0 0 0 
26.77137384839174 -15.780309112890063 242.69934154495914 0 0 0 0 0 0 -0.25919886839039324 -0.008914802995320147 -0.005980611299178812 0 0 0 0.03801120554186291 0.3847368886523858 0.21150469562640567 0.015167962431810155 -0.007809885314367349 -0.2806378831609817 0 0 0 0.4394729764191588 -0.157314506660356 0.1230832275256783 -0.21529280656959812 -0.5350567864220904 0.5672174868680944 0 0 0 0 0 0 -0.10823649710309312 -0.04557704957822059 -0.23377572406866212 0 0 0 0 0 0 0.4082397147935855 -0.4552257529141061 1.450952791307832 -0.8181044755038342 0.39830237887378434 -1.736948398962055 0 0 0 0 0 0 0.5569728005677888 -0.021172347576309994 -0.14202032921799934 -0.3515878024240774 0.016412452567789133 0.09746202810055635 -0.23763510420465683 0.1946972956397314 0.23668194798244205 0 0 0 0 0 0 0 0 0 0 0 0 0 0 0 0 0 0 0 0 0 0 0 0 0 0 0 0 0 0 0 0 0 
26.75409966452232 -15.783429717186753 242.6703622932789 0 0 0 0 0 0 -0.3451949296751659 -0.011868925218643463 -0.008209645959058697 -0.32538688654471926 0.05414076625220416 0.026479506651421007 0.05117735022717515 0.5124533762330788 0.28211074474993864 0.021102015121418707 -0.010522518327861642 -0.374138552112122 0 0 0 0.587739718750754 -0.21048414826957654 0.1638294939726542 -0.28581375516624064 -0.7127917514011958 0.7565852394192346 0 0 0 0 0 0 -0.1447686221499584 -0.0615370925704053 -0.3123369791783317 -0.2690849026338085 -0.02604900866066187 -0.028435533995156966 0 0 0 0.5350951981427715 -0.606830940093656 1.926088038445453 -1.0948916359722967 0.5278590332162755 -2.31582570134091 0 0 0 0 0 0 0.7426467461694026 -0.027908281728376987 -0.18970831920062162 -0.46889516561600114 0.02187208076397401 0.13032114973946365 -0.31683832306174936 0.2575206001480732 0.31302269654367254 0 0 0 0 0 0 0 0 0 0 0 0 0 0 0 0 0 0 0 0 0 0 0 0 0 0 0 0 0 0 0 0 0 
26.736825480652904 -15.786550321483437 242.6413830415987 0 0 0 0 0 0 -0.4312230693319901 -0.014827497413195268 -0.010435077056491453 -0.40637592807680223 0.06766598226268598 0.03295521909216519 0.06450612162053515 0.6402006375781139 0.35277378818811606 0.027042710904070833 -0.013226473063344653 -0.4676744543548324 0.015508513731999967 -0.04862337448101181 -0.3095643955329519 0.7360235133090189 -0.2637785861735932 0.2044530450182345 -0.3569496906310719 -0.8903543778856032 0.9462459803386799 0 0 0 0 0 0 -0.18129250975215663 -0.07755321483281898 -0.39091748105802004 -0.3368277903720792 -0.032379641353447564 -0.03633710986244143 -0.2370389257458518 -0.019861159522153865 0.13273403789239055 0.6607261982868252 -0.7595238197485816 2.4010295749699795 -1.3730374213939809 0.6546373266690461 -2.8954539648162676 0 0 0 0 0 0 0.9283935560215972 -0.0344919972117724 -0.23743519418077821 -0.5862429515482098 0.027401036587664677 0.16318122646815741 -0.395987506398308 0.32047263896369194 0.3893051712765754 0 0 0 0 0 0 0 0 0 0.16297007031889746 -0.019117537861267277 -0.25538720486773003 0 0 0 0 0 0 0 0 0 0 0 0 0 0 0 0 0 0 0 0 0 
26.719551296783486 -15.789670925780126 242.61240378991837 0 0 0 -0.23749122512154278 -0.015704270139098 0.15609911263691884 -0.5172829168167561 -0.017790503885915205 -0.012656885038296421 -0.48739345735282835 0.0812053522652359 0.03941419606372654 0.07799764239332378 0.7679768073182633 0.42349365016864776 0.03299000830243117 -0.015921717556674393 -0.5612451079565498 0.01946483801006432 -0.05821972284100076 -0.37117512001993214 0.8843221348530821 -0.3171966989947893 0.2449528806979318 -0.4286987346399224 -1.0677344262449937 1.136194992741652 0 0 0 0 0 0 -0.2178079070631789 -0.09362536314961659 -0.4695168429847015 -0.40459505788829925 -0.038721975965001286 -0.04423413888277579 -0.2857464469738747 -0.024274829982578683 0.15700803093294038 0.7851047026882616 -0.913269041182236 2.8757047961230477 -1.6524441525187619 0.7785876999476462 -3.4756746710078943 0 0 0 0 0 0 1.11420898016885 -0.0409231107518969 -0.2851994146883924 -0.7036300799733799 0.03299932008434306 0.1960418172821359 -0.4750818521417378 0.38355269134093867 0.465528581869775 0 0 0 0 0 0 0 0 0 0.19769667830850102 -0.021996970923198116 -0.3080844838215926 0 0 0 0 0 0 0 0 0 0 0 0 0 0 0 0 0 0 0 0 0 
26.7080536 -15.791748000000002 242.5931152 0 0 0 -0.2637787463251792 -0.017404410792886654 0.17339540392840685 -0.5745817444378237 -0.019765131188413568 -0.014133702488642357 -0.5413343621387751 0.09022496799815558 0.04370398551779068 0.08706787086138357 0.8530397298182366 0.47059619820223614 0.03695216828189112 -0.017710828438036966 -0.6235447602148088 0.02210470502858809 -0.06460666580986471 -0.41219627316258256 0.9830368198402185 -0.3528197927016075 0.27184050544907035 -0.4767937845694377 -1.1856923443909224 1.262782499418008 0 0 0 0 0 0 -0.24210772469729636 -0.10435401419987533 -0.5218428419118334 -0.44971437628687816 -0.0429499128054579 -0.04948786124603449 -0.3181772765352974 -0.027202037484722972 0.17317189165750943 0.8671833635334725 -1.016167441905908 3.1914653793210794 -1.8390673882484052 0.8594985661816298 -3.862119420739397 0 0 0 0 0 0 1.2379236626192394 -0.045118888885232765 -0.31701122024993067 -0.7817842276267436 0.03676396546476212 0.21791389407361944 -0.527696257579481 0.42560937610447386 0.5162297558908607 0 0 0 0 0 0 0 0 0 0.22081931298433902 -0.023896399164342136 -0.3431715916725908 0 0 0 0 0 0 0 0 0 0 0 0 0 0 0 0 0 0 0 0 0 
